<?xml version="1.0" encoding="UTF-8" standalone="no" ?>
<!DOCTYPE svg PUBLIC "-//W3C//DTD SVG 1.1//EN" "http://www.w3.org/Graphics/SVG/1.1/DTD/svg11.dtd">
<svg xmlns="http://www.w3.org/2000/svg" xmlns:xlink="http://www.w3.org/1999/xlink" version="1.1" width="500" height="500" viewBox="0 0 500 500" xml:space="preserve">
<desc>Created with Fabric.js 4.6.0</desc>
<defs>
</defs>
<g transform="matrix(1 0 0 1 250 250)" id="9hurP4LFkBVBY7-2eGQ1J"  >
<path style="stroke: rgb(0,0,0); stroke-width: 14; stroke-dasharray: none; stroke-linecap: butt; stroke-dashoffset: 0; stroke-linejoin: miter; stroke-miterlimit: 4; fill: none; fill-rule: nonzero; opacity: 1;" vector-effect="non-scaling-stroke"  transform=" translate(-103.79, -103.79)" d="M 0 0 L 207.5718 0 L 207.5718 207.5718 L 0 207.5718 z" stroke-linecap="round" />
</g>
<g transform="matrix(2.85 0 0 2.85 250 250)" id="tzlfCz-qk4s0zMDoCPuc9"  >
<path style="stroke: rgb(0,0,0); stroke-width: 5; stroke-dasharray: none; stroke-linecap: butt; stroke-dashoffset: 0; stroke-linejoin: miter; stroke-miterlimit: 4; fill: none; fill-rule: nonzero; opacity: 1;" vector-effect="non-scaling-stroke"  transform=" translate(0, 0)" d="M 0 -32.63708 C 18.01567 -32.63708 32.63708 -18.01567 32.63708 0 C 32.63708 18.01567 18.01567 32.63708 0 32.63708 C -18.01567 32.63708 -32.63708 18.01567 -32.63708 0 C -32.63708 -18.01567 -18.01567 -32.63708 0 -32.63708 z" stroke-linecap="round" />
</g>
<g transform="matrix(1.43 0 0 1.57 250 238.25)" id="vJOOrgSEwNKLmko8u74C1"  >
<path style="stroke: rgb(0,0,0); stroke-width: 11; stroke-dasharray: none; stroke-linecap: butt; stroke-dashoffset: 0; stroke-linejoin: miter; stroke-miterlimit: 4; fill: none; fill-rule: nonzero; opacity: 1;" vector-effect="non-scaling-stroke"  transform=" translate(-40, -40)" d="M 60 40 L 80 80 L 40 80 L 0 80 L 20 40 L 40 0 L 60 40 z" stroke-linecap="round" />
</g>
</svg>